PathFileType	4	(X/Y/Z)	/Users/niels/Desktop/University/Third Semester/Perception and Action/Exam/Gymnastics Motion Tracking/Code for Gym Tracking/Analyzed Data/Webcam_Backflip/id2_1_baseline_Sports2D/id2_1_baseline_Sports2D_px_person00.trc
DataRate	CameraRate	NumFrames	NumMarkers	Units	OrigDataRate	OrigDataStartFrame	OrigNumFrames
29.92207792207792	29.92207792207792	12	22	m	29.92207792207792	96	385
Frame#	Time	Hip			RHip			RKnee			RAnkle			RBigToe			RSmallToe			RHeel			LHip			LKnee			LAnkle			LBigToe			LSmallToe			LHeel			Neck			Head			Nose			RShoulder			RElbow			RWrist			LShoulder			LElbow			LWrist		
		X1	Y1	Z1	X2	Y2	Z2	X3	Y3	Z3	X4	Y4	Z4	X5	Y5	Z5	X6	Y6	Z6	X7	Y7	Z7	X8	Y8	Z8	X9	Y9	Z9	X10	Y10	Z10	X11	Y11	Z11	X12	Y12	Z12	X13	Y13	Z13	X14	Y14	Z14	X15	Y15	Z15	X16	Y16	Z16	X17	Y17	Z17	X18	Y18	Z18	X19	Y19	Z19	X20	Y20	Z20	X21	Y21	Z21	X22	Y22	Z22
96	3.208333333333333	0.9564488946406862	-0.482348849061066	0.0	0.8998683024834483	-0.48945837700407335	0.0	0.8929021265695968	-0.7058991507092749	0.0	0.8958225812147126	-0.9004206847879982	0.0	0.8736892336484674	-0.9524524549685961	0.0	0.8511688145875512	-0.9420834050357557	0.0	0.90782260149656	-0.9149136518240251	0.0	1.0093225413750258	-0.4905340091199091	0.0	1.0088211880123987	-0.7039200286572236	0.0	0.9965903806691365	-0.8972062975307601	0.0	1.043032585971697	-0.9448237608143186	0.0	1.054011775780183	-0.9332794142503434	0.0	0.9788780903295226	-0.9133806938668638	0.0	0.9534719051628899	-0.1418739812979269	0.0	0.9545176750884545	-0.004393346217012952	0.0	0.9634758613183371	-0.07979779925531379	0.0	0.8505246126717687	-0.2083059279775381	0.0	0.8215014473056957	-0.3684184732983391	0.0	0.7996303170132095	-0.5022400007229405	0.0	1.0539848954223259	-0.19902383400559187	0.0	1.0791779643224517	-0.3452679178977692	0.0	1.1025338568906042	-0.46999063459561435	0.0
97	3.2417534722222223	0.9585119557829342	-0.4823709490427768	0.0	0.90221272952916	-0.4890157701504211	0.0	0.8940845910599928	-0.7052388947327379	0.0	0.8963811410619863	-0.8996791129563501	0.0	0.8739452768753674	-0.952204830031668	0.0	0.8507528498098726	-0.9416126113539632	0.0	0.9083097980404381	-0.9144922686460328	0.0	1.0114859608654392	-0.49042698418765324	0.0	1.0149699510860242	-0.7018910024081447	0.0	0.9978223718607632	-0.8947923190846974	0.0	1.044815333312356	-0.9440734569566671	0.0	1.0554221155272183	-0.931970216610332	0.0	0.9793181406724846	-0.9106887290422889	0.0	0.9560605039347683	-0.14185596987177185	0.0	0.9582101144629217	-0.0039508957807223985	0.0	0.9679157063100615	-0.0796489475169859	0.0	0.8533456915173339	-0.2072600487620012	0.0	0.8237810631879552	-0.36776611056707476	0.0	0.803131580986675	-0.5026835035982695	0.0	1.0554992296043608	-0.20022334642681242	0.0	1.079795828653651	-0.3455736178748785	0.0	1.1045331910781186	-0.469191170074748	0.0
98	3.275173611111111	0.9608239505667441	-0.4822737009875151	0.0	0.9048981726835994	-0.4884791603604978	0.0	0.8953981149846864	-0.7045510884466902	0.0	0.8970538331334363	-0.8987385238318145	0.0	0.8746276025291815	-0.9518238440475404	0.0	0.8507050540548647	-0.9410194292304385	0.0	0.9088443240453731	-0.914014103806533	0.0	1.0138627840114796	-0.49010272675714894	0.0	1.0236817867332701	-0.6989246637800439	0.0	1.0004838881987843	-0.8916321327521686	0.0	1.0481984174729946	-0.9425223057604326	0.0	1.058443376164478	-0.929901678984115	0.0	0.9810276114154752	-0.9076006471984434	0.0	0.95900151885824	-0.14181607125707033	0.0	0.9622649182131976	-0.0037137963980260237	0.0	0.9725291955319278	-0.07930630516184074	0.0	0.8566046484223238	-0.20610279297535689	0.0	0.8264625246550357	-0.3669761392844598	0.0	0.8074846077982264	-0.5030883917352423	0.0	1.057200514011326	-0.20157738190698027	0.0	1.0803085398193406	-0.3460157635673891	0.0	1.1066446201132805	-0.46800785451909127	0.0
99	3.30859375	0.9634462543008001	-0.4820624763442516	0.0	0.9080306085393731	-0.48780172568903274	0.0	0.8969869067204405	-0.7039615841344614	0.0	0.8977768877575575	-0.8977590956368477	0.0	0.8756282870599882	-0.9512049530910187	0.0	0.8510592866856653	-0.94023692820813	0.0	0.9093373219855945	-0.9135489691936871	0.0	1.0164296146256953	-0.4894868357892242	0.0	1.0344600981252667	-0.6950568048379557	0.0	1.0050807099409678	-0.8879809068484293	0.0	1.0538822814092854	-0.940041803731977	0.0	1.0636617089162914	-0.927028709096609	0.0	0.984625356194638	-0.9044405379456955	0.0	0.9624054564048998	-0.14182256839723267	0.0	0.9667202255264774	-0.0038008619717286134	0.0	0.9772627822791903	-0.07888355047965866	0.0	0.8604066500544083	-0.20484072664239408	0.0	0.8296270319892729	-0.36604264754367566	0.0	0.8126657030457474	-0.5034622431046217	0.0	1.0592847800627265	-0.20304163235655934	0.0	1.0809498153321833	-0.3467374733245682	0.0	1.1087695057638713	-0.466725723768369	0.0
100	3.342013888888889	0.9665528027194907	-0.4817218220553484	0.0	0.9117871466703081	-0.48690529517043196	0.0	0.8989898435367543	-0.7035029346490528	0.0	0.8984463982666451	-0.8968923748131867	0.0	0.876694740097881	-0.9502809378211446	0.0	0.8516958088420487	-0.9392904256062973	0.0	0.9096726209716155	-0.9131234587715289	0.0	1.0193231368086817	-0.4885169636415496	0.0	1.0461502220161762	-0.69070421851936	0.0	1.0118726509406781	-0.8843765309465186	0.0	1.0624737616104543	-0.9368181333233616	0.0	1.0715659117881422	-0.9235937375022681	0.0	0.9905433238078758	-0.9016524507914233	0.0	0.9663543836194786	-0.1419127768747465	0.0	0.9716223253625125	-0.004282896874748583	0.0	0.9821054406714034	-0.07852513725901797	0.0	0.8648895593285795	-0.20352119311778594	0.0	0.8333547828005242	-0.3650163866981978	0.0	0.8186159262929084	-0.5038067608186002	0.0	1.0619135851275152	-0.2045469471772665	0.0	1.0820607515637575	-0.34782511278895023	0.0	1.1108450178062994	-0.4656971097034345	0.0
101	3.3754340277777777	0.9703784823994577	-0.4812001491002792	0.0	0.9163712524261509	-0.4856982648381525	0.0	0.9015376645419029	-0.7030629617254711	0.0	0.8990103810377101	-0.8961985225904361	0.0	0.877545871513773	-0.9490623303296979	0.0	0.8524623386072389	-0.9382304443637917	0.0	0.9097578093245426	-0.9127115311402251	0.0	1.0228371587082332	-0.4872006797242103	0.0	1.0572831539177108	-0.6866593672137854	0.0	1.0206634414010878	-0.8815489309334874	0.0	1.0741434546573576	-0.9333856938764978	0.0	1.0822149758337638	-0.9200969628611977	0.0	0.9988259952973404	-0.899784234957423	0.0	0.9709318398500709	-0.1420659952915343	0.0	0.9770561442026862	-0.005209761161524167	0.0	0.9872034481548588	-0.07833426090370715	0.0	0.8701855379075922	-0.2022494711416298	0.0	0.8377085460480724	-0.3639638672241005	0.0	0.8252558201562066	-0.5040432835166403	0.0	1.065174516269656	-0.2059947378358629	0.0	1.0839918118343677	-0.34926873106131706	0.0	1.1129591030352775	-0.4652237991566775	0.0
102	3.4088541666666665	0.9751285890106628	-0.48043756712862423	0.0	0.9219336761469528	-0.4841243555719087	0.0	0.9047565617434637	-0.7024979749253961	0.0	0.899513307250836	-0.8956745115183438	0.0	0.877952878112285	-0.9476103510334284	0.0	0.8532483048422685	-0.9370305883650192	0.0	0.9095748853903871	-0.9122926961832756	0.0	1.027294704413359	-0.4855890531152166	0.0	1.0666505889391467	-0.6838401208801459	0.0	1.0307687238896772	-0.8802173916348812	0.0	1.0882542505704977	-0.9304368278645098	0.0	1.0949419033207874	-0.9171503966261555	0.0	1.0089749598933793	-0.8993621712672254	0.0	0.9762081927613814	-0.14223675890416093	0.0	0.9831974163121764	-0.006586912285470411	0.0	0.9928881149336651	-0.07833696761041319	0.0	0.8763671068295354	-0.20114979636042063	0.0	0.842776453426634	-0.3629591798613686	0.0	0.8324962883699197	-0.5040466052827198	0.0	1.0691096618781242	-0.20726440307943503	0.0	1.0870267528148363	-0.35096234752371347	0.0	1.1154078522975237	-0.4654957644081487	0.0
103	3.4422743055555554	0.9809144134870461	-0.47946088092475464	0.0	0.928519441340034	-0.48227213930721563	0.0	0.9087632014781739	-0.7017899003981513	0.0	0.9000541689213643	-0.8952546638895288	0.0	0.8777795060837134	-0.946010309753838	0.0	0.8539809781456297	-0.9356212405291454	0.0	0.9092263340827043	-0.9118280640873356	0.0	1.032914396866937	-0.4837643239094752	0.0	1.0737988504166531	-0.682887008440088	0.0	1.0411460123895933	-0.8807483813035029	0.0	1.1032600310251992	-0.9285013152879096	0.0	1.1083022224340362	-0.9152829763385468	0.0	1.0199189118413792	-0.9006040837588466	0.0	0.9822133695272941	-0.14241113902471947	0.0	0.9902820711401678	-0.00833930331923373	0.0	0.9994788617089462	-0.0784979101001798	0.0	0.8834407696568597	-0.20027997196396014	0.0	0.8487041957712717	-0.36204337885172083	0.0	0.840253654201789	-0.5037137680452908	0.0	1.0737498211178544	-0.20824803193759628	0.0	1.0912851170227627	-0.35274106717734277	0.0	1.1185863777219036	-0.4665531433588675	0.0
104	3.475694444444444	0.9877334214280178	-0.4784583272536339	0.0	0.9360712785151704	-0.48045585426914283	0.0	0.913656103335839	-0.7009983855348563	0.0	0.9007335735018229	-0.8947746009095242	0.0	0.8770469655621179	-0.9443777184354234	0.0	0.8545930302095239	-0.9340230310905968	0.0	0.9088972211629145	-0.9112024048711048	0.0	1.0397246028686538	-0.4819277890640964	0.0	1.0790801301596702	-0.6838516310268579	0.0	1.050605577336764	-0.8828830564380967	0.0	1.1170911645732224	-0.9277317822015975	0.0	1.120405419621538	-0.9147264812414848	0.0	1.030220490723368	-0.9031822896332172	0.0	0.9889626690100574	-0.1426453357749578	0.0	0.998461012954003	-0.010308027067787355	0.0	1.0070791980925977	-0.07876790968776942	0.0	0.891352395742587	-0.1996215093421877	0.0	0.855623945341245	-0.36121617678610285	0.0	0.8484888827452722	-0.5029925582771734	0.0	1.0791087771656973	-0.20890975020332037	0.0	1.0966824723246558	-0.3544672513923719	0.0	1.1228428060286504	-0.46830940430930135	0.0
105	3.509114583333333	0.9955138250513729	-0.477711768941621	0.0	0.9444746149631656	-0.4791069372801392	0.0	0.9194792279876735	-0.7001335452711548	0.0	0.9016259158656439	-0.8940288869868221	0.0	0.8759628542039467	-0.9428579591515692	0.0	0.8550329756736897	-0.9324010581343634	0.0	0.908765816214201	-0.910283618067081	0.0	1.0475766070342032	-0.48042746690950894	0.0	1.0832063350542875	-0.6861939582676754	0.0	1.058114309511283	-0.8858466907370116	0.0	1.1279723291743835	-0.9279086166175593	0.0	1.129639366105047	-0.9152978724960252	0.0	1.038540314289535	-0.9063166829709177	0.0	0.9964610752475705	-0.1430253122945112	0.0	1.0076536089793333	-0.01222693948525087	0.0	1.0156253329797307	-0.07908815195790732	0.0	0.8999768592966522	-0.19917135281860532	0.0	0.8635708540233435	-0.3605172803919198	0.0	0.8572633698457306	-0.5019284639772305	0.0	1.0851565067379103	-0.20928757222629174	0.0	1.1030301375020028	-0.3560696787729569	0.0	1.1283865836709142	-0.470570087772534	0.0
106	3.5425347222222223	1.0041684665870758	-0.4774357273029297	0.0	0.9536261824851598	-0.4785332249745832	0.0	0.9261987034437834	-0.699204684938425	0.0	0.9027907991919414	-0.8928809121943948	0.0	0.8748592899992516	-0.9415850504364789	0.0	0.8553077230210406	-0.930965207121286	0.0	0.9089986703533819	-0.9090227467901526	0.0	1.0562501164165683	-0.4796066765774916	0.0	1.086728704907086	-0.6891235028550534	0.0	1.063165820953468	-0.8887577536515469	0.0	1.1351769718225682	-0.9285962999674172	0.0	1.1353997768780622	-0.9165170474829211	0.0	1.044151477553886	-0.9091549237227586	0.0	1.004631396065127	-0.14357401235559603	0.0	1.0174918839241756	-0.013771710466572405	0.0	1.0250081069564778	-0.07939375029355115	0.0	0.9091320885730605	-0.1990043039575734	0.0	0.872506774294164	-0.36008629796473807	0.0	0.8667656542442542	-0.5007328433188005	0.0	1.0918222689616437	-0.20942272483153315	0.0	1.1101735137184259	-0.35747893217754023	0.0	1.1351688529118762	-0.4729537124624813	0.0
107	3.575954861111111	1.0135898712802272	-0.477660670226647	0.0	0.9634865034039412	-0.4787427714831179	0.0	0.9337888299879076	-0.6983145848642623	0.0	0.9043062941729507	-0.8913160582030234	0.0	0.8741878042512146	-0.9405772239678455	0.0	0.855581807090887	-0.9298001194108635	0.0	0.9097442834848435	-0.9074486771248552	0.0	1.0655173067230657	-0.47957266784562064	0.0	1.0898461574886045	-0.6920392608547713	0.0	1.0659288322124707	-0.8909851976391783	0.0	1.1391130982525617	-0.9293426842155343	0.0	1.1381932685884089	-0.9178736257916372	0.0	1.0471250126170915	-0.9111458631366935	0.0	1.0132793325311582	-0.144219404892219	0.0	1.027429997935472	-0.014728688563184145	0.0	1.0350366927102035	-0.07966335273438993	0.0	0.9186333477483013	-0.19919003997024995	0.0	0.8823565355959115	-0.36009046270547984	0.0	0.8772614419768324	-0.4997186588656443	0.0	1.099016396660079	-0.20934141081458366	0.0	1.1179917232206584	-0.3585877438741168	0.0	1.1428004450459757	-0.47492751211018136	0.0
